<?xml version="1.0" standalone="no"?>
<!DOCTYPE svg PUBLIC "-//W3C//DTD SVG 20010904//EN"
 "http://www.w3.org/TR/2001/REC-SVG-20010904/DTD/svg10.dtd">
<svg version="1.0" xmlns="http://www.w3.org/2000/svg"
 width="800.000000pt" height="800.000000pt" viewBox="0 0 800.000000 800.000000"
 preserveAspectRatio="xMidYMid meet">
<metadata>
Created by potrace 1.14, written by Peter Selinger 2001-2017
</metadata>
<g transform="translate(0.000000,800.000000) scale(0.100000,-0.100000)"
fill="#000000" stroke="none">
<path d="M1320 6658 c-33 -17 -51 -35 -68 -68 l-22 -45 2 -2562 3 -2562 21
-27 c50 -68 138 -93 201 -57 17 10 206 187 420 393 213 206 532 514 708 685
176 170 444 429 595 575 151 146 376 364 500 483 l224 217 31 -29 c79 -76
2573 -2305 2593 -2318 36 -25 104 -28 146 -8 42 20 82 74 92 123 13 65 -14 99
-250 310 -122 109 -698 624 -1281 1146 -583 522 -1070 958 -1083 971 l-23 22
858 829 c1691 1634 1743 1685 1763 1725 11 21 20 47 20 57 0 35 -29 89 -64
120 -45 39 -95 49 -144 30 -20 -8 -435 -246 -922 -528 -487 -282 -1254 -726
-1705 -987 -541 -313 -832 -487 -856 -512 -46 -47 -57 -100 -34 -158 13 -33
77 -95 322 -314 l305 -273 -33 -30 c-19 -17 -495 -476 -1058 -1021 -563 -544
-1028 -991 -1033 -993 -4 -2 -8 1058 -8 2356 l0 2359 -22 33 c-52 76 -123 97
-198 58z m4175 -996 c-39 -38 -205 -199 -370 -358 -165 -160 -508 -491 -762
-737 -254 -246 -465 -447 -468 -447 -8 0 -435 383 -435 390 0 3 456 270 1013
593 556 323 1026 595 1042 606 56 37 50 21 -20 -47z"/>
</g>
</svg>
